<?xml version="1.0" encoding="UTF-8"?>
<svg version="1.1" viewBox="0 0 2048 2048" width="40" height="40" xmlns="http://www.w3.org/2000/svg">
<path transform="translate(111,83)" d="m0 0h317l23 2 16 4 15 6 16 9 13 10 15 15 9 13 9 17 6 18 11 50 22 103 13 59v4h1346l9 4 8 7 5 10v15l-14 65-30 140-11 50-11 52-13 60-11 52-18 84-11 50-11 52-22 103-5 21-5 9-4 5-7 4-9 2-1017 1 8 35 22 103 2 12h986l10 3 5 3v2h2l6 9 2 7v116l-3 9-7 9-10 5-5 1-33 1h-976l-21-1-22-4-16-6-17-9-12-9-12-11-9-11-10-15-7-16-5-16-17-79-20-93-45-210-37-172-21-97-11-52-23-107-24-112-17-79-20-93-11-51v-3h-285l-11-2-6-4-5-5-4-5-2-5-1-10v-105l2-10 6-10 10-7zm30 57-1 3v48l286 1 10 4 7 7 4 10 11 50 48 224 25 116 48 224 40 186 24 112 20 93 26 121 9 41 5 16 6 11 11 12 7 6 17 8 13 3 212 1h780l2-1v-50l-981-1-9-3-8-6-6-12-14-64-16-75-23-107-24-112-26-121-18-83-11-52-20-93-26-121-27-126-29-135-18-83-6-16-8-12-9-9-11-7-12-5-9-2-10-1zm850 309-45 1v10l16 148 3 27 245 1 16-1v-185l-114-1zm329 0-37 1v186h257l4-2 15-138 4-36v-11zm-648 0-64 1 12 57 24 111 4 17 6 1 254-1-4-42-13-121-3-22-2-1zm949 1-2 13-12 111-6 54v7h260l11-50 15-69 10-48 3-14v-4zm-961 242 4 20 11 51 14 65 11 50 1 1 233-1-1-15-17-159-1-10-1-2zm312 0v9l17 159 2 18h234l1-6v-180zm311 0v187l234-1 2-10 13-122 6-54zm313 0-2 7-3 25-12 111-4 36v7h233l3-9 12-55 11-52 14-65v-5zm-884 243 15 70 12 55 10 47 3 14h208l-1-15-16-150-2-18-1-3zm286 0v9l18 167 2 10h207l1-2v-184zm285 0v186h208l3-21 14-130 3-26v-9zm286 0-1 1-7 66-12 112v7h206l2-2 6-26 33-154v-4z"/>
<path transform="translate(801,1570)" d="m0 0h33l23 3 23 6 15 6 21 10 18 12 10 8 10 9 14 14 13 17 8 13 11 21 7 19 5 20 3 18 1 26-2 23-4 20-6 20-10 23-10 17-12 16-9 10-7 8-11 10-15 11-13 8-17 9-21 8-19 5-17 3-11 1h-29l-17-2-19-4-21-7-20-9-18-11-12-9-10-9-8-7-13-14-11-15-9-15-11-23-6-18-5-22-2-16v-32l4-26 6-21 7-18 12-23 12-17 11-13 15-15 17-13 14-9 19-10 21-8 20-5zm3 57-18 3-17 5-14 6-18 11-13 11-15 15-12 18-8 16-5 13-4 16-2 16v19l2 17 5 19 9 21 10 16 9 11 5 6h2l1 3 11 9 13 9 15 8 13 5 14 4 19 3h26l17-3 14-4 13-5 17-9 14-10 15-14 10-12 8-12 9-19 6-19 3-18 1-15-2-24-5-19-6-16-8-15-9-13-11-12-8-8-15-11-16-9-15-6-14-4-18-3z"/>
<path transform="translate(1673,1570)" d="m0 0h34l22 3 17 4 22 8 16 8 14 8 19 14 16 15 10 11 13 18 10 17 8 17 7 21 5 23 2 18v26l-2 17-5 23-7 20-7 15-8 15-8 12-11 13-7 8-12 12-17 13-18 11-23 11-26 8-22 4-11 1h-29l-23-3-22-6-21-8-21-11-17-12-11-9-20-20-12-16-10-16-8-16-6-15-6-21-3-15-2-18v-21l3-25 6-24 7-19 11-22 10-15 11-14 12-13 11-10 19-14 21-12 19-8 20-6 15-3zm4 57-14 2-19 5-16 7-11 6-14 10-12 11-11 12-10 15-8 15-6 17-4 16-1 8v33l4 20 5 15 8 17 10 15 9 11 11 11 13 10 14 8 12 6 18 6 15 3 8 1h27l17-3 17-5 18-8 16-10 13-11 13-13 12-17 9-17 7-21 3-16 1-10v-19l-3-20-5-18-9-20-10-16-9-10-7-8-13-11-16-10-17-8-15-5-22-4z"/>
<path transform="translate(1687,1672)" d="m0 0 20 1 15 4 17 8 14 10 10 10 8 11 8 15 5 17 2 14-1 17-3 15-6 16-7 11-8 10-9 9-13 9-15 7-14 4-13 2h-14l-20-4-15-6-16-10-11-10-10-13-8-15-5-16-2-11v-20l3-15 6-16 6-11 9-12h2l2-4 12-10 14-8 13-5 12-3zm2 57-11 2-8 4-9 8-5 8-3 12v9l4 13 7 9 9 7 10 3 9 1 11-2 11-6 8-8 5-10 1-5v-14l-3-9-6-10-9-7-10-4z"/>
<path transform="translate(815,1672)" d="m0 0 19 1 13 3 16 7 11 7 12 10v2h2l10 13 8 15 5 15 2 13v17l-2 14-5 15-8 15-11 14-10 9-11 7-12 6-12 4-17 3h-14l-17-3-16-6-11-6-12-9-8-8-9-12-8-16-5-15-1-7v-26l4-17 7-16 9-13 9-10 12-10 14-8 14-5 10-2zm2 57-11 2-10 5-8 8-4 6-3 10v14l3 10 6 8 5 5 8 5 7 2 10 1 13-3 10-6 8-9 4-10 1-5v-10l-4-13-6-8-8-7-11-4z"/>
</svg>
